<svg id="Layer_1" data-name="Layer 1" xmlns="http://www.w3.org/2000/svg" viewBox="0 0 475.08 498.98"><defs><style>.cls-1,.cls-2{fill:none;stroke:#00a9ff;stroke-miterlimit:10;stroke-width:35px;}.cls-1{stroke-linecap:round;}</style></defs><title>logo</title><path class="cls-1" d="M293.42,488.08H105.51a12,12,0,0,1-12-12V115.71a12,12,0,0,1,12-12H465.88a12,12,0,0,1,12,12V312.25" transform="translate(-76.01 -53.06)"/><line class="cls-2" x1="17.5" y1="151.9" x2="401.87" y2="151.9"/><polyline class="cls-1" points="46 225.55 60.05 246.94 126.57 197.78"/><polyline class="cls-1" points="46 356.77 60.05 378.16 126.57 329"/><line class="cls-1" x1="142.91" y1="226.9" x2="368.39" y2="226.9"/><line class="cls-1" x1="142.91" y1="366.17" x2="273.66" y2="366.17"/><line class="cls-1" x1="84.08" y1="50.44" x2="84.08" y2="17.5"/><line class="cls-1" x1="341.37" y1="50.65" x2="341.37" y2="17.5"/><path class="cls-1" d="M531.94,341.87,338.79,533.39l-26.94.7-.75-28.62L504.25,314C523,313.46,538.86,324.09,531.94,341.87Z" transform="translate(-76.01 -53.06)"/><rect class="cls-1" x="499.86" y="322.47" width="22.02" height="22.02" transform="translate(-84.56 -39.58) rotate(-1.5)"/><line class="cls-1" x1="410.13" y1="287" x2="435.61" y2="308.96"/><line class="cls-1" x1="412.71" y1="276.3" x2="435.32" y2="297.65"/><line class="cls-1" x1="423.57" y1="269.7" x2="446.16" y2="291.14"/></svg>